<svg xmlns="http://www.w3.org/2000/svg" viewBox="0 0 120 82" role="img" aria-label="TicketFlow TF ticket logo">
  <defs>
    <linearGradient id="ticketflow-ticket-fill" x1="12" y1="15" x2="108" y2="67" gradientUnits="userSpaceOnUse">
      <stop offset="0" stop-color="#071b18"/>
      <stop offset="0.52" stop-color="#12332d"/>
      <stop offset="1" stop-color="#1d7a68"/>
    </linearGradient>
    <linearGradient id="ticketflow-ticket-shine" x1="22" y1="18" x2="92" y2="62" gradientUnits="userSpaceOnUse">
      <stop offset="0" stop-color="#ffffff" stop-opacity="0.24"/>
      <stop offset="1" stop-color="#ffffff" stop-opacity="0"/>
    </linearGradient>
  </defs>

  <path
    fill="url(#ticketflow-ticket-fill)"
    d="M18 14 H102 C107 14 111 18 111 23 V29 C102 29 96 34 96 41 C96 48 102 53 111 53 V59 C111 64 107 68 102 68 H18 C13 68 9 64 9 59 V53 C18 53 24 48 24 41 C24 34 18 29 9 29 V23 C9 18 13 14 18 14 Z"/>
  <path
    fill="url(#ticketflow-ticket-shine)"
    d="M19 19 H95 C99 19 102 22 102 26 V28 C94 31 90 36 90 41 C90 46 94 51 102 54 V56 C102 60 99 63 95 63 H19 C16 63 14 61 14 58 V56 C23 53 29 47 29 41 C29 35 23 29 14 26 V24 C14 21 16 19 19 19 Z"/>
  <path
    d="M38 20 L38 62"
    fill="none"
    stroke="#ffffff"
    stroke-opacity="0.34"
    stroke-width="2.4"
    stroke-linecap="round"
    stroke-dasharray="4 6"/>
  <text
    x="71"
    y="51"
    fill="#ffffff"
    font-family="Inter, Segoe UI, Arial, sans-serif"
    font-size="27"
    font-weight="800"
    text-anchor="middle"
    letter-spacing="0">TF</text>
</svg>
